<?xml version="1.0" encoding="UTF-8"?>
<svg id="Capa_2"
    xmlns="http://www.w3.org/2000/svg" viewBox="0 0 379.02 38.31">
    <defs>
        <style>.cls-1{fill:white;}.cls-2{fill:white;}</style>
    </defs>
    <g id="Capa_1-2">
        <path class="cls-1" d="M56.49,.38H0V37.87H88.22V.38h-31.73Zm20.31,29.01H11.42v-6.64H76.8v6.64Zm0-14.05H11.42v-6.42H76.8v6.42Z"/>
        <path class="cls-2" d="M140.92,21.79v2.2c0,5.85-1.53,9.71-4.58,11.55-3.06,1.85-7.77,2.77-14.13,2.77l-9.33-.06c-4.94,0-8.72-.26-11.35-.78-2.63-.52-4.74-1.85-6.35-3.98-1.61-2.13-2.42-5.48-2.42-10.06V.44h11.42V20.06c0,3.75,.45,6.18,1.34,7.3,.9,1.12,3.16,1.68,6.81,1.68l5.11,.08,4.72-.08c3.11,0,5.1-.48,5.98-1.46,.88-.97,1.32-2.93,1.32-5.9V.44h11.47V21.79Z"/>
        <rect class="cls-2" x="145.48" y=".38" width="11.42" height="37.49"/>
        <polygon class="cls-2" points="198.77 28.49 198.77 37.87 161.45 37.87 161.45 .38 172.87 .38 172.87 28.49 198.77 28.49"/>
        <path class="cls-2" d="M236.37,.38c6.79,0,11.34,1.13,13.67,3.37,2.32,2.25,3.49,6.74,3.49,13.48v4.34c0,1.76-.03,2.99-.08,3.7-.06,.72-.27,2.17-.65,4.37-.37,2.19-1.67,4.12-3.88,5.76-2.22,1.65-4.99,2.47-8.32,2.47h-37.27V.38h33.04Zm5.63,18.88v-.33c0-3.68-.41-6.15-1.24-7.42-.82-1.27-3.04-1.91-6.64-1.91h-19.38V28.71h19.21c3.53,0,5.75-.65,6.67-1.96,.91-1.31,1.38-3.8,1.38-7.48"/>
        <rect class="cls-2" x="258.08" y=".38" width="11.42" height="37.49"/>
        <polygon class="cls-2" points="307.39 37.87 284.78 9.71 284.78 37.87 274.05 37.87 274.05 .38 292.22 .38 314.8 28.49 314.8 .38 325.53 .38 325.53 37.87 307.39 37.87"/>
        <path class="cls-2" d="M378.96,16.74l.06,7.88c0,4.61-.8,8.03-2.39,10.25-1.59,2.22-4.69,3.34-9.31,3.34l-5.95,.05-6.81-.05-5.9-.06c-4.3,0-7.72-.29-10.25-.86-2.53-.58-4.54-1.86-6.01-3.84-1.47-1.98-2.21-5.03-2.21-9.12l-.11-4.72c0-7.3,.9-12.35,2.69-15.16,1.79-2.81,6.03-4.21,12.7-4.21l8.54-.16,3.16-.06,7.63,.17c4.96,0,8.55,.85,10.77,2.55,2.22,1.7,3.34,4.98,3.34,9.85v.69h-11.17c0-.9-.13-1.67-.4-2.3-.27-.64-.76-1.09-1.47-1.35-.71-.26-1.4-.42-2.04-.48-.65-.06-1.6-.1-2.84-.1l-13.2-.05c-2.71,0-4.42,.66-5.13,1.98-.71,1.32-1.07,3.53-1.07,6.64v3.49c0,2.58,.35,4.5,1.07,5.75,.71,1.25,1.73,1.97,3.04,2.14,1.32,.17,2.33,.28,3.03,.32,.7,.04,1.6,.05,2.7,.05l10.15,.06c1.92,0,3.44-.32,4.54-.96,1.1-.64,1.66-1.84,1.66-3.6l-.05-1.07h-14.46v-7.03h25.69Z"/>
    </g>
</svg>